<mxfile host="app.diagrams.net" modified="2024-05-23T03:17:53.974Z" agent="Mozilla/5.0 (Windows NT 10.0; Win64; x64; rv:126.0) Gecko/20100101 Firefox/126.0" etag="RiGt1OV9HQS4w0PdtqQM" version="24.4.4" type="github">
  <diagram name="Page-1" id="xacfxgz_AN2MpSmGN5SA">
    <mxGraphModel dx="1323" dy="825" grid="1" gridSize="10" guides="1" tooltips="1" connect="1" arrows="1" fold="1" page="1" pageScale="1" pageWidth="850" pageHeight="1100" math="0" shadow="0">
      <root>
        <mxCell id="0" />
        <mxCell id="1" parent="0" />
        <mxCell id="gGMf_RvesEZICPI27PIr-2" value="" style="group" vertex="1" connectable="0" parent="1">
          <mxGeometry x="250" y="120" width="120" height="80" as="geometry" />
        </mxCell>
        <mxCell id="gGMf_RvesEZICPI27PIr-3" value="" style="ellipse;whiteSpace=wrap;html=1;" vertex="1" parent="gGMf_RvesEZICPI27PIr-2">
          <mxGeometry width="120" height="80" as="geometry" />
        </mxCell>
        <mxCell id="gGMf_RvesEZICPI27PIr-4" value="5S1P AA Battery Pack" style="text;html=1;align=center;verticalAlign=middle;whiteSpace=wrap;rounded=0;container=0;" vertex="1" collapsed="1" parent="gGMf_RvesEZICPI27PIr-2">
          <mxGeometry x="10" y="25" width="100" height="30" as="geometry">
            <mxRectangle x="320" y="275" width="60" height="30" as="alternateBounds" />
          </mxGeometry>
        </mxCell>
        <mxCell id="gGMf_RvesEZICPI27PIr-14" style="edgeStyle=orthogonalEdgeStyle;rounded=0;orthogonalLoop=1;jettySize=auto;html=1;exitX=1;exitY=0.5;exitDx=0;exitDy=0;exitPerimeter=0;entryX=0.5;entryY=0;entryDx=0;entryDy=0;" edge="1" parent="1" source="gGMf_RvesEZICPI27PIr-6" target="gGMf_RvesEZICPI27PIr-18">
          <mxGeometry relative="1" as="geometry">
            <mxPoint x="220" y="320" as="targetPoint" />
            <Array as="points">
              <mxPoint x="310" y="295" />
              <mxPoint x="190" y="295" />
            </Array>
          </mxGeometry>
        </mxCell>
        <mxCell id="gGMf_RvesEZICPI27PIr-15" style="edgeStyle=orthogonalEdgeStyle;rounded=0;orthogonalLoop=1;jettySize=auto;html=1;exitX=1;exitY=0.5;exitDx=0;exitDy=0;exitPerimeter=0;" edge="1" parent="1" source="gGMf_RvesEZICPI27PIr-6">
          <mxGeometry relative="1" as="geometry">
            <mxPoint x="440" y="330" as="targetPoint" />
            <Array as="points">
              <mxPoint x="310" y="295" />
              <mxPoint x="440" y="295" />
              <mxPoint x="440" y="320" />
            </Array>
          </mxGeometry>
        </mxCell>
        <mxCell id="gGMf_RvesEZICPI27PIr-6" value="" style="pointerEvents=1;verticalLabelPosition=bottom;shadow=0;dashed=0;align=center;html=1;verticalAlign=top;shape=mxgraph.electrical.miscellaneous.fuse_1;rotation=90;" vertex="1" parent="1">
          <mxGeometry x="275" y="225" width="70" height="20" as="geometry" />
        </mxCell>
        <mxCell id="gGMf_RvesEZICPI27PIr-7" value="7.5A" style="text;html=1;align=center;verticalAlign=middle;whiteSpace=wrap;rounded=0;container=0;" vertex="1" collapsed="1" parent="1">
          <mxGeometry x="330" y="220" width="60" height="30" as="geometry">
            <mxRectangle x="320" y="275" width="60" height="30" as="alternateBounds" />
          </mxGeometry>
        </mxCell>
        <mxCell id="gGMf_RvesEZICPI27PIr-8" value="" style="endArrow=none;html=1;rounded=0;" edge="1" parent="1" source="gGMf_RvesEZICPI27PIr-11">
          <mxGeometry width="50" height="50" relative="1" as="geometry">
            <mxPoint x="140" y="74.5" as="sourcePoint" />
            <mxPoint x="260" y="74.5" as="targetPoint" />
          </mxGeometry>
        </mxCell>
        <mxCell id="gGMf_RvesEZICPI27PIr-9" value="&lt;div&gt;Data&lt;/div&gt;" style="text;html=1;align=center;verticalAlign=middle;whiteSpace=wrap;rounded=0;container=0;" vertex="1" collapsed="1" parent="1">
          <mxGeometry x="80" y="30" width="60" height="30" as="geometry">
            <mxRectangle x="320" y="275" width="60" height="30" as="alternateBounds" />
          </mxGeometry>
        </mxCell>
        <mxCell id="gGMf_RvesEZICPI27PIr-10" value="" style="endArrow=none;html=1;rounded=0;" edge="1" parent="1" target="gGMf_RvesEZICPI27PIr-11">
          <mxGeometry width="50" height="50" relative="1" as="geometry">
            <mxPoint x="140" y="74.5" as="sourcePoint" />
            <mxPoint x="260" y="74.5" as="targetPoint" />
          </mxGeometry>
        </mxCell>
        <mxCell id="gGMf_RvesEZICPI27PIr-11" value="&lt;div&gt;Power&lt;/div&gt;" style="text;html=1;align=center;verticalAlign=middle;whiteSpace=wrap;rounded=0;" vertex="1" parent="1">
          <mxGeometry x="80" y="60" width="60" height="30" as="geometry" />
        </mxCell>
        <mxCell id="gGMf_RvesEZICPI27PIr-12" value="" style="endArrow=none;dashed=1;html=1;strokeWidth=2;rounded=0;exitX=1;exitY=0.5;exitDx=0;exitDy=0;" edge="1" parent="1" source="gGMf_RvesEZICPI27PIr-9">
          <mxGeometry width="50" height="50" relative="1" as="geometry">
            <mxPoint x="190" y="70" as="sourcePoint" />
            <mxPoint x="260" y="45" as="targetPoint" />
          </mxGeometry>
        </mxCell>
        <mxCell id="gGMf_RvesEZICPI27PIr-13" value="&lt;div&gt;Fuse Calculations&lt;/div&gt;&lt;div&gt;Servo = 4.2A&lt;/div&gt;&lt;div&gt;ESP32-S3 = 0.25A&lt;/div&gt;&lt;div&gt;RFM96W Transceiver = 0.075A&lt;/div&gt;&lt;div&gt;MPU-6050 = 0.005A&lt;/div&gt;&lt;div&gt;Bar30 = 0.6 Î¼A&lt;/div&gt;&lt;div&gt;Total current = 6.8A&lt;/div&gt;&lt;div&gt;Next standard fuse is 7.5A&lt;/div&gt;&lt;div&gt;&lt;b&gt;Fuse will 7.5A&lt;/b&gt;&lt;br&gt;&lt;/div&gt;&lt;div&gt;&lt;br&gt;&lt;/div&gt;" style="text;html=1;align=center;verticalAlign=middle;whiteSpace=wrap;rounded=0;container=0;" vertex="1" collapsed="1" parent="1">
          <mxGeometry x="10" y="190" width="200" height="30" as="geometry">
            <mxRectangle x="320" y="275" width="60" height="30" as="alternateBounds" />
          </mxGeometry>
        </mxCell>
        <mxCell id="gGMf_RvesEZICPI27PIr-17" value="" style="group" vertex="1" connectable="0" parent="1">
          <mxGeometry x="130" y="330" width="120" height="80" as="geometry" />
        </mxCell>
        <mxCell id="gGMf_RvesEZICPI27PIr-18" value="" style="ellipse;whiteSpace=wrap;html=1;" vertex="1" parent="gGMf_RvesEZICPI27PIr-17">
          <mxGeometry width="120" height="80" as="geometry" />
        </mxCell>
        <mxCell id="gGMf_RvesEZICPI27PIr-19" value="Servo" style="text;html=1;align=center;verticalAlign=middle;whiteSpace=wrap;rounded=0;container=0;" vertex="1" collapsed="1" parent="gGMf_RvesEZICPI27PIr-17">
          <mxGeometry x="30" y="25" width="60" height="30" as="geometry">
            <mxRectangle x="320" y="275" width="60" height="30" as="alternateBounds" />
          </mxGeometry>
        </mxCell>
        <mxCell id="gGMf_RvesEZICPI27PIr-20" value="" style="group" vertex="1" connectable="0" parent="1">
          <mxGeometry x="380" y="330" width="120" height="80" as="geometry" />
        </mxCell>
        <mxCell id="gGMf_RvesEZICPI27PIr-21" value="" style="ellipse;whiteSpace=wrap;html=1;" vertex="1" parent="gGMf_RvesEZICPI27PIr-20">
          <mxGeometry width="120" height="80" as="geometry" />
        </mxCell>
        <mxCell id="gGMf_RvesEZICPI27PIr-22" value="5V Voltage Converter" style="text;html=1;align=center;verticalAlign=middle;whiteSpace=wrap;rounded=0;container=0;" vertex="1" collapsed="1" parent="gGMf_RvesEZICPI27PIr-20">
          <mxGeometry x="30" y="25" width="60" height="30" as="geometry">
            <mxRectangle x="320" y="275" width="60" height="30" as="alternateBounds" />
          </mxGeometry>
        </mxCell>
        <mxCell id="gGMf_RvesEZICPI27PIr-23" value="" style="group" vertex="1" connectable="0" parent="1">
          <mxGeometry x="380" y="470" width="120" height="80" as="geometry" />
        </mxCell>
        <mxCell id="gGMf_RvesEZICPI27PIr-24" value="" style="ellipse;whiteSpace=wrap;html=1;" vertex="1" parent="gGMf_RvesEZICPI27PIr-23">
          <mxGeometry width="120" height="80" as="geometry" />
        </mxCell>
        <mxCell id="gGMf_RvesEZICPI27PIr-25" value="ESP32-S3" style="text;html=1;align=center;verticalAlign=middle;whiteSpace=wrap;rounded=0;container=0;" vertex="1" collapsed="1" parent="gGMf_RvesEZICPI27PIr-23">
          <mxGeometry x="30" y="25" width="60" height="30" as="geometry">
            <mxRectangle x="320" y="275" width="60" height="30" as="alternateBounds" />
          </mxGeometry>
        </mxCell>
        <mxCell id="gGMf_RvesEZICPI27PIr-26" style="edgeStyle=orthogonalEdgeStyle;rounded=0;orthogonalLoop=1;jettySize=auto;html=1;exitX=0.5;exitY=1;exitDx=0;exitDy=0;entryX=0.5;entryY=0;entryDx=0;entryDy=0;" edge="1" parent="1" source="gGMf_RvesEZICPI27PIr-21" target="gGMf_RvesEZICPI27PIr-24">
          <mxGeometry relative="1" as="geometry" />
        </mxCell>
        <mxCell id="gGMf_RvesEZICPI27PIr-27" style="rounded=0;orthogonalLoop=1;jettySize=auto;html=1;exitX=0;exitY=0;exitDx=0;exitDy=0;entryX=1;entryY=1;entryDx=0;entryDy=0;dashed=1;" edge="1" parent="1" source="gGMf_RvesEZICPI27PIr-24" target="gGMf_RvesEZICPI27PIr-18">
          <mxGeometry relative="1" as="geometry" />
        </mxCell>
        <mxCell id="gGMf_RvesEZICPI27PIr-28" value="" style="group" vertex="1" connectable="0" parent="1">
          <mxGeometry x="580" y="470" width="120" height="80" as="geometry" />
        </mxCell>
        <mxCell id="gGMf_RvesEZICPI27PIr-29" value="" style="ellipse;whiteSpace=wrap;html=1;" vertex="1" parent="gGMf_RvesEZICPI27PIr-28">
          <mxGeometry width="120" height="80" as="geometry" />
        </mxCell>
        <mxCell id="gGMf_RvesEZICPI27PIr-30" value="RFM96W" style="text;html=1;align=center;verticalAlign=middle;whiteSpace=wrap;rounded=0;container=0;" vertex="1" collapsed="1" parent="gGMf_RvesEZICPI27PIr-28">
          <mxGeometry x="30" y="25" width="60" height="30" as="geometry">
            <mxRectangle x="320" y="275" width="60" height="30" as="alternateBounds" />
          </mxGeometry>
        </mxCell>
        <mxCell id="gGMf_RvesEZICPI27PIr-31" value="" style="group" vertex="1" connectable="0" parent="1">
          <mxGeometry x="580" y="620" width="120" height="80" as="geometry" />
        </mxCell>
        <mxCell id="gGMf_RvesEZICPI27PIr-32" value="" style="ellipse;whiteSpace=wrap;html=1;" vertex="1" parent="gGMf_RvesEZICPI27PIr-31">
          <mxGeometry width="120" height="80" as="geometry" />
        </mxCell>
        <mxCell id="gGMf_RvesEZICPI27PIr-33" value="MPU-6050" style="text;html=1;align=center;verticalAlign=middle;whiteSpace=wrap;rounded=0;container=0;" vertex="1" collapsed="1" parent="gGMf_RvesEZICPI27PIr-31">
          <mxGeometry x="30" y="25" width="60" height="30" as="geometry">
            <mxRectangle x="320" y="275" width="60" height="30" as="alternateBounds" />
          </mxGeometry>
        </mxCell>
        <mxCell id="gGMf_RvesEZICPI27PIr-34" value="" style="group" vertex="1" connectable="0" parent="1">
          <mxGeometry x="380" y="630" width="120" height="80" as="geometry" />
        </mxCell>
        <mxCell id="gGMf_RvesEZICPI27PIr-35" value="" style="ellipse;whiteSpace=wrap;html=1;" vertex="1" parent="gGMf_RvesEZICPI27PIr-34">
          <mxGeometry width="120" height="80" as="geometry" />
        </mxCell>
        <mxCell id="gGMf_RvesEZICPI27PIr-36" value="Text" style="text;html=1;align=center;verticalAlign=middle;whiteSpace=wrap;rounded=0;container=0;" vertex="1" collapsed="1" parent="gGMf_RvesEZICPI27PIr-34">
          <mxGeometry x="30" y="25" width="60" height="30" as="geometry">
            <mxRectangle x="320" y="275" width="60" height="30" as="alternateBounds" />
          </mxGeometry>
        </mxCell>
        <mxCell id="gGMf_RvesEZICPI27PIr-37" style="edgeStyle=orthogonalEdgeStyle;rounded=0;orthogonalLoop=1;jettySize=auto;html=1;exitX=1;exitY=0.5;exitDx=0;exitDy=0;entryX=0;entryY=0.5;entryDx=0;entryDy=0;" edge="1" parent="1" source="gGMf_RvesEZICPI27PIr-24" target="gGMf_RvesEZICPI27PIr-29">
          <mxGeometry relative="1" as="geometry" />
        </mxCell>
        <mxCell id="gGMf_RvesEZICPI27PIr-38" style="rounded=0;orthogonalLoop=1;jettySize=auto;html=1;exitX=1;exitY=1;exitDx=0;exitDy=0;entryX=0;entryY=0;entryDx=0;entryDy=0;" edge="1" parent="1" source="gGMf_RvesEZICPI27PIr-24" target="gGMf_RvesEZICPI27PIr-32">
          <mxGeometry relative="1" as="geometry" />
        </mxCell>
        <mxCell id="gGMf_RvesEZICPI27PIr-39" style="edgeStyle=orthogonalEdgeStyle;rounded=0;orthogonalLoop=1;jettySize=auto;html=1;exitX=0.5;exitY=1;exitDx=0;exitDy=0;entryX=0.5;entryY=0;entryDx=0;entryDy=0;" edge="1" parent="1" source="gGMf_RvesEZICPI27PIr-24" target="gGMf_RvesEZICPI27PIr-35">
          <mxGeometry relative="1" as="geometry" />
        </mxCell>
      </root>
    </mxGraphModel>
  </diagram>
</mxfile>
